# This file uses centimeters as units for non-parametric coordinates.

mtllib Ruïne 2.mtl
g default
v -1.147300 0.009502 1.147300
v 1.147300 0.009502 1.147300
v -1.147300 2.925729 1.147300
v 1.147300 2.925729 1.147300
v -1.147300 2.925729 -1.147300
v 1.147300 2.925729 -1.147300
v -1.147300 0.009502 -1.147300
v 1.147300 0.009502 -1.147300
v -1.147300 2.571751 1.147300
v 1.147300 2.571751 1.147300
v 1.147300 2.571750 -1.147300
v -1.147300 2.571750 -1.147300
v -1.290712 2.760975 1.290712
v 1.290712 2.760975 1.290712
v 1.290712 2.924193 1.290712
v -1.290712 2.924193 1.290712
v -1.290712 2.924193 -1.290712
v 1.290712 2.924193 -1.290712
v 1.290712 2.760974 -1.290712
v -1.290712 2.760974 -1.290712
v -1.290712 2.573287 1.290712
v 1.290712 2.573287 1.290712
v 1.290712 2.573286 -1.290712
v -1.290712 2.573286 -1.290712
v -1.484319 2.762846 1.484319
v 1.484319 2.762846 1.484319
v 1.484319 2.922323 1.484319
v -1.484319 2.922323 1.484319
v -1.484319 2.922323 -1.484319
v 1.484319 2.922323 -1.484319
v 1.484319 2.762845 -1.484319
v -1.484319 2.762845 -1.484319
v -1.291667 3.121901 1.291667
v 1.291667 3.121901 1.291667
v -1.485274 3.120030 1.485274
v 1.485274 3.120030 1.485274
v -1.291667 3.121901 -1.291667
v 1.291667 3.121901 -1.291667
v 1.485274 3.120030 -1.485274
v -1.485274 3.120030 -1.485274
v -0.516285 2.925729 0.516285
v 0.516285 2.925729 0.516285
v 0.516285 2.925729 -0.516285
v -0.516285 2.925729 -0.516285
v -0.516285 4.061868 0.516285
v 0.516285 4.061868 0.516285
v 0.516285 4.061868 -0.516285
v -0.516285 4.061868 -0.516285
v -1.147300 1.495276 1.147300
v 1.147300 1.495276 1.147300
v 1.147300 1.495275 -1.147300
v -1.147300 1.495275 -1.147300
v -1.147300 0.332738 1.147300
v 1.147300 0.332738 1.147300
v 1.147300 0.332738 -1.147300
v -1.147300 0.332738 -1.147300
v 1.147300 0.985629 -1.147300
v 1.147300 0.985630 1.147300
v -1.147300 0.985630 1.147300
v -1.147300 0.985629 -1.147300
v -1.147300 0.738306 1.147300
v 1.147300 0.738306 1.147300
v 1.147300 0.738306 -1.147300
v -1.147300 0.738306 -1.147300
v -1.147300 0.985629 -1.401753
v 1.147300 0.985629 -1.401753
v 1.147300 0.738306 -1.401753
v -1.147300 0.738306 -1.401753
v 1.147300 0.332738 -1.401753
v -1.147300 0.332738 -1.401753
v 1.147300 0.009502 -1.401754
v -1.147300 0.009502 -1.401754
v 1.147300 1.495275 -1.401753
v -1.147300 1.495275 -1.401753
v -2.097649 0.009502 -1.147300
v -2.097649 0.009502 1.147300
v -2.097649 0.332738 1.147300
v -2.097649 0.332738 -1.147300
v -1.147300 0.738306 2.252524
v 1.147300 0.738306 2.252524
v 1.147300 0.985630 2.252524
v -1.147300 0.985630 2.252524
v -1.147300 0.009502 2.252524
v 1.147300 0.009502 2.252524
v 1.147300 0.332738 2.252524
v -1.147300 0.332738 2.252524
v 1.909848 0.009502 -1.147300
v 1.909848 0.009502 1.147300
v 1.909848 0.332738 -1.147300
v 1.909848 0.332738 1.147300
v 1.909848 0.738306 -1.147300
v 1.909848 0.738306 1.147300
v -1.279807 0.985630 1.147300
v -1.279807 0.985629 -1.147300
v -1.279807 1.495276 1.147300
v -1.279807 1.495275 -1.147300
v -1.147300 0.985629 -1.548507
v 1.147300 0.985629 -1.548507
v 1.147300 0.738306 -1.548507
v -1.147300 0.738306 -1.548507
v -1.147300 0.009502 2.472398
v 1.147300 0.009502 2.472398
v 1.147300 0.332738 2.472398
v -1.147300 0.332738 2.472398
vt 0.583629 0.681783
vt 0.345439 0.681781
vt 0.345439 0.668985
vt 0.583629 0.668987
vt 0.345363 0.653122
vt 0.583706 0.653124
vt 0.345442 0.354547
vt 0.583631 0.354549
vt 0.583631 0.367344
vt 0.345441 0.367343
vt 0.583708 0.383208
vt 0.345365 0.383206
vt 0.568094 0.712376
vt 0.360973 0.712374
vt 0.360973 0.697315
vt 0.568095 0.697317
vt 0.360976 0.323954
vt 0.568097 0.323955
vt 0.568097 0.339015
vt 0.360976 0.339013
vt 0.556587 0.810254
vt 0.152030 0.630634
vt 0.372479 0.723881
vt 0.556588 0.723883
vt 0.556587 0.851146
vt 0.099364 0.642408
vt 0.797514 0.630066
vt 0.372478 0.870988
vt 0.099364 0.621992
vt 0.152030 0.610217
vt 0.067745 0.610217
vt 0.886193 0.610223
vt 0.886193 0.630067
vt 0.035204 0.630633
vt 0.035204 0.610217
vt 0.079520 0.610217
vt 0.099364 0.610217
vt 0.797514 0.662607
vt 0.886192 0.662608
vt 0.009269 0.630633
vt 0.009269 0.610217
vt 0.797514 0.688542
vt 0.886192 0.688543
vt 0.903834 0.662608
vt 0.903834 0.688543
vt 0.372483 0.226076
vt 0.556591 0.226077
vt 0.556591 0.312449
vt 0.372483 0.312447
vt 0.360974 0.621725
vt 0.568095 0.621727
vt 0.568172 0.637590
vt 0.360897 0.637588
vt 0.568097 0.414605
vt 0.360975 0.414603
vt 0.360899 0.398740
vt 0.568174 0.398742
vt 0.223867 0.338667
vt 0.139776 0.338667
vt 0.139776 0.246141
vt 0.223867 0.246141
vt 0.139776 0.069524
vt 0.223867 0.069525
vt 0.223867 0.162050
vt 0.139776 0.162050
vt 0.079519 0.393918
vt 0.797516 0.406270
vt 0.567223 0.174554
vt 0.372483 0.163921
vt 0.035205 0.405692
vt 0.797516 0.373729
vt 0.886194 0.406270
vt 0.886194 0.426114
vt 0.111139 0.426109
vt 0.079520 0.414335
vt 0.886194 0.373729
vt 0.035205 0.426109
vt 0.152031 0.405693
vt 0.152031 0.426109
vt 0.099365 0.426109
vt 0.079520 0.426109
vt 0.797517 0.347794
vt 0.886195 0.347794
vt 0.009270 0.405693
vt 0.009270 0.426109
vt 0.903836 0.347795
vt 0.903836 0.373730
vt 0.556585 0.990650
vt 0.372477 0.990648
vt 0.372477 0.964713
vt 0.556585 0.964715
vt 0.372477 0.932172
vt 0.556586 0.932174
vt 0.372483 0.009349
vt 0.556592 0.009349
vt 0.556592 0.035284
vt 0.372483 0.035284
vt 0.372483 0.174553
vt 0.556592 0.174553
vt 0.556591 0.215445
vt 0.372483 0.215444
vt 0.720098 0.904895
vt 0.720098 0.784285
vt 0.840709 0.784285
vt 0.840709 0.904895
vt 0.706723 0.904895
vt 0.706723 0.784285
vt 0.720098 0.744203
vt 0.840709 0.744203
vt 0.898802 0.784285
vt 0.898802 0.904895
vt 0.840709 0.954848
vt 0.720098 0.954848
vt 0.910360 0.784285
vt 0.910360 0.904895
vt 0.556589 0.610220
vt 0.556590 0.426112
vt 0.505959 0.559590
vt 0.505960 0.476741
vt 0.372482 0.426110
vt 0.372480 0.610218
vt 0.423111 0.559589
vt 0.423111 0.476740
vt 0.670251 0.610221
vt 0.658746 0.414606
vt 0.258818 0.610218
vt 0.270325 0.621725
vt 0.643687 0.414606
vt 0.628153 0.399071
vt 0.285384 0.621725
vt 0.300918 0.637259
vt 0.583960 0.414529
vt 0.599492 0.637338
vt 0.329578 0.398992
vt 0.345111 0.621801
vt 0.172447 0.426109
vt 0.172447 0.610217
vt 0.556591 0.111536
vt 0.372483 0.111536
vt 0.797514 0.610222
vt 0.556586 0.870990
vt 0.556592 0.163921
vt 0.111139 0.610217
vt 0.067746 0.426109
vt 0.938578 0.610223
vt 0.938579 0.426115
vt 0.956221 0.426115
vt 0.956220 0.610223
vt 0.628151 0.637261
vt 0.615355 0.637261
vt 0.615358 0.399071
vt 0.599494 0.398995
vt 0.313715 0.399069
vt 0.313714 0.637259
vt 0.300919 0.399069
vt 0.329577 0.637335
vt 0.658744 0.621727
vt 0.643685 0.621727
vt 0.285385 0.414603
vt 0.270325 0.414603
vt 0.756624 0.426113
vt 0.756623 0.610222
vt 0.670253 0.426113
vt 0.258819 0.426110
vt 0.583958 0.621804
vt 0.345112 0.414527
vt 0.316392 0.162050
vt 0.316392 0.246141
vt 0.047250 0.246141
vt 0.047250 0.162050
vt 0.906038 0.426115
vt 0.906037 0.610223
vt 0.982156 0.426115
vt 0.982155 0.610223
vt 0.582526 0.111537
vt 0.582527 0.035285
vt 0.346548 0.111536
vt 0.346548 0.035284
vt 0.311293 0.990647
vt 0.311294 0.964712
vt 0.311294 0.932171
vt 0.617769 0.964716
vt 0.617768 0.990651
vt 0.617769 0.932175
vt 0.361852 0.215445
vt 0.361851 0.174553
vt 0.556592 0.144077
vt 0.797516 0.426114
vt 0.567223 0.215445
vt 0.372483 0.144077
vt 0.099363 0.393918
vt 0.099364 0.414334
vt 0.035205 0.405692
vt 0.067746 0.405693
vt 0.111140 0.405693
vt 0.079520 0.621992
vt 0.372479 0.810253
vt 0.035204 0.630633
vt 0.079520 0.642408
vt 0.067745 0.630633
vt 0.372478 0.851144
vt 0.111139 0.630633
vn 0.000000 0.000000 1.000000
vn 0.000000 0.000000 1.000000
vn 0.000000 -0.002678 0.999996
vn 0.000000 -0.002678 0.999996
vn 0.000000 1.000000 0.000000
vn 0.000000 1.000000 0.000000
vn 0.000000 1.000000 0.000000
vn 0.000000 1.000000 0.000000
vn 0.000000 -0.002678 -0.999996
vn 0.000000 -0.002678 -0.999996
vn 0.000000 0.000000 -1.000000
vn 0.000000 0.000000 -1.000000
vn 0.000000 -1.000000 0.000000
vn 0.000000 -1.000000 0.000000
vn 0.000000 -1.000000 0.000000
vn 0.000000 -1.000000 0.000000
vn 1.000000 0.000000 0.000000
vn 1.000000 0.000000 0.000000
vn 0.999996 -0.002678 0.000000
vn 0.999996 -0.002678 0.000000
vn -1.000000 0.000000 0.000000
vn -1.000000 0.000000 0.000000
vn -0.999996 -0.002678 0.000000
vn -0.999996 -0.002678 0.000000
vn 0.000000 0.000000 1.000000
vn 0.000000 0.000000 1.000000
vn 0.000000 0.000000 1.000000
vn 0.000000 0.000000 1.000000
vn 1.000000 0.000000 0.000000
vn 1.000000 0.000000 0.000000
vn 1.000000 0.000000 0.000000
vn 1.000000 0.000000 0.000000
vn 0.000000 0.000000 -1.000000
vn 0.000000 0.000000 -1.000000
vn 0.000000 0.000000 -1.000000
vn 0.000000 0.000000 -1.000000
vn -1.000000 0.000000 0.000000
vn -1.000000 0.000000 0.000000
vn -1.000000 0.000000 0.000000
vn -1.000000 0.000000 0.000000
vn 0.000000 0.000000 1.000000
vn 0.000000 0.000000 1.000000
vn 0.000000 0.000000 1.000000
vn 0.000000 0.000000 1.000000
vn 1.000000 0.000000 0.000000
vn 1.000000 0.000000 0.000000
vn 1.000000 0.000000 0.000000
vn 1.000000 0.000000 0.000000
vn 0.000000 0.000000 -1.000000
vn 0.000000 0.000000 -1.000000
vn 0.000000 0.000000 -1.000000
vn 0.000000 0.000000 -1.000000
vn -1.000000 0.000000 0.000000
vn -1.000000 0.000000 0.000000
vn -1.000000 0.000000 0.000000
vn -1.000000 0.000000 0.000000
vn 0.002676 0.999993 0.002676
vn -0.002676 0.999993 0.002676
vn -0.005355 0.999971 0.005355
vn 0.005355 0.999971 0.005355
vn -0.002676 0.999993 -0.002676
vn 0.002676 0.999993 -0.002676
vn 0.005355 0.999971 -0.005355
vn -0.005355 0.999971 -0.005355
vn -0.005354 -0.999971 0.005355
vn 0.005354 -0.999971 0.005355
vn 0.005354 -0.999971 0.005355
vn -0.005354 -0.999971 0.005355
vn 0.005354 -0.999971 -0.005354
vn 0.005354 -0.999971 -0.005354
vn -0.005354 -0.999971 -0.005354
vn -0.005354 -0.999971 -0.005354
vn -0.004831 -0.999977 0.004832
vn 0.004831 -0.999977 0.004832
vn 0.004831 -0.999977 0.004832
vn -0.004831 -0.999977 0.004832
vn 0.004831 0.999977 0.004831
vn -0.004831 0.999977 0.004831
vn -0.004831 0.999977 0.004831
vn 0.004831 0.999977 0.004831
vn -0.004831 0.999977 -0.004831
vn 0.004831 0.999977 -0.004831
vn 0.004831 0.999977 -0.004831
vn -0.004831 0.999977 -0.004831
vn 0.004831 -0.999977 -0.004831
vn -0.004831 -0.999977 -0.004831
vn -0.004831 -0.999977 -0.004831
vn 0.004831 -0.999977 -0.004831
vn 0.000000 0.004831 -0.999988
vn 0.000000 0.004831 -0.999988
vn 0.000000 0.004831 -0.999988
vn 0.000000 0.004831 -0.999988
vn 0.000000 -0.004831 0.999988
vn 0.000000 -0.004831 0.999988
vn 0.000000 0.004831 0.999988
vn 0.000000 0.004831 0.999988
vn 0.000000 0.004831 0.999988
vn 0.000000 0.004831 0.999988
vn 0.000000 -0.004831 -0.999988
vn 0.000000 -0.004831 -0.999988
vn -0.999988 0.004831 0.000000
vn -0.999988 0.004831 0.000000
vn -0.999988 0.004831 0.000000
vn -0.999988 0.004831 0.000000
vn 0.999988 -0.004831 0.000000
vn 0.999988 -0.004831 0.000000
vn 0.999988 0.004831 0.000000
vn 0.999988 0.004831 0.000000
vn 0.999988 0.004831 0.000000
vn 0.999988 0.004831 0.000000
vn -0.999988 -0.004831 0.000000
vn -0.999988 -0.004831 0.000000
vn 0.000000 1.000000 -0.000000
vn 0.000000 1.000000 -0.000000
vn 0.000000 1.000000 0.000000
vn 0.000000 1.000000 0.000000
vn 0.000000 0.000000 1.000000
vn 0.000000 0.000000 1.000000
vn 0.000000 0.000000 1.000000
vn 0.000000 0.000000 1.000000
vn 1.000000 0.000000 0.000000
vn 1.000000 0.000000 0.000000
vn 1.000000 0.000000 0.000000
vn 1.000000 0.000000 0.000000
vn 0.000000 0.000000 -1.000000
vn 0.000000 0.000000 -1.000000
vn 0.000000 0.000000 -1.000000
vn 0.000000 0.000000 -1.000000
vn -1.000000 0.000000 0.000000
vn -1.000000 0.000000 0.000000
vn -1.000000 0.000000 0.000000
vn -1.000000 0.000000 0.000000
vn 0.000000 0.000000 1.000000
vn 0.000000 0.000000 1.000000
vn 0.000000 0.000000 1.000000
vn 0.000000 0.000000 1.000000
vn 1.000000 0.000000 0.000000
vn 1.000000 0.000000 0.000000
vn 1.000000 0.000000 0.000000
vn 1.000000 0.000000 0.000000
vn 0.000000 0.000000 -1.000000
vn 0.000000 0.000000 -1.000000
vn 0.000000 0.000000 -1.000000
vn 0.000000 0.000000 -1.000000
vn -1.000000 0.000000 0.000000
vn -1.000000 0.000000 0.000000
vn -1.000000 0.000000 0.000000
vn -1.000000 0.000000 0.000000
vn 0.000000 0.000000 1.000000
vn 0.000000 0.000000 1.000000
vn 0.000000 0.000000 1.000000
vn 0.000000 0.000000 1.000000
vn 1.000000 0.000000 0.000000
vn 1.000000 0.000000 0.000000
vn 1.000000 0.000000 0.000000
vn 1.000000 0.000000 0.000000
vn 0.000000 0.000000 -1.000000
vn 0.000000 0.000000 -1.000000
vn 0.000000 0.000001 -1.000000
vn 0.000000 0.000001 -1.000000
vn -1.000000 0.000000 0.000000
vn -1.000000 0.000000 0.000000
vn -1.000000 0.000000 0.000000
vn -1.000000 0.000000 0.000000
vn 0.000000 0.000000 1.000000
vn 0.000000 0.000000 1.000000
vn -1.000000 0.000000 0.000000
vn -1.000000 0.000000 0.000000
vn -1.000000 0.000000 0.000000
vn -1.000000 0.000000 0.000000
vn 0.000000 0.000000 -1.000000
vn 0.000000 0.000000 -1.000000
vn 0.000000 0.000000 -1.000000
vn 0.000000 0.000000 -1.000000
vn 0.000000 0.000000 1.000000
vn 0.000000 0.000000 1.000000
vn 1.000000 0.000000 0.000000
vn 1.000000 0.000000 0.000000
vn 0.000000 0.000000 -1.000000
vn 0.000000 0.000000 -1.000000
vn -1.000000 0.000000 0.000000
vn -1.000000 0.000000 0.000000
vn 1.000000 0.000000 0.000000
vn 1.000000 0.000000 0.000000
vn -1.000000 0.000000 0.000000
vn -1.000000 0.000000 0.000000
vn 1.000000 0.000000 0.000000
vn 1.000000 0.000000 0.000000
vn 1.000000 0.000000 0.000000
vn 1.000000 0.000000 0.000000
vn 0.000000 -1.000000 0.000000
vn 0.000000 -1.000000 0.000000
vn -1.000000 0.000000 0.000000
vn -1.000000 0.000000 0.000000
vn -1.000000 0.000000 0.000000
vn 0.000000 1.000000 0.000000
vn 0.000000 1.000000 0.000000
vn 0.000000 1.000000 0.000000
vn 0.000000 1.000000 0.000000
vn 1.000000 0.000000 0.000000
vn -1.000000 0.000000 0.000000
vn -1.000000 0.000000 0.000000
vn 0.000000 -1.000000 0.000000
vn 0.000000 -1.000000 0.000000
vn 0.000000 0.000000 1.000000
vn 0.000000 0.000000 1.000000
vn 0.000000 0.000000 1.000000
vn 0.000000 0.000000 1.000000
vn 0.000000 1.000000 -0.000000
vn 0.000000 1.000000 -0.000000
vn 0.000000 1.000000 -0.000000
vn 0.000000 1.000000 -0.000000
vn 0.000000 0.000000 -1.000000
vn 0.000000 0.000000 -1.000000
vn 0.000000 0.000000 -1.000000
vn 0.000000 0.000000 -1.000000
vn 1.000000 0.000000 0.000000
vn 1.000000 0.000000 0.000000
vn 0.000000 1.000000 0.000000
vn 0.000000 1.000000 0.000000
vn 0.000000 1.000000 0.000000
vn 0.000000 1.000000 0.000000
vn -1.000000 0.000000 0.000000
vn -1.000000 0.000000 0.000000
vn 0.000000 -1.000000 0.000000
vn 0.000000 -1.000000 0.000000
vn 1.000000 0.000000 0.000000
vn 1.000000 0.000000 0.000000
vn 1.000000 0.000000 0.000000
vn 1.000000 0.000000 0.000000
vn -1.000000 0.000000 0.000000
vn -1.000000 0.000000 0.000000
vn -1.000000 0.000000 0.000000
vn 0.000000 -1.000000 0.000000
vn 0.000000 -1.000000 0.000000
vn 0.000000 0.000000 -1.000000
vn 0.000000 0.000000 -1.000000
vn 0.000000 0.000000 -1.000000
vn 0.000000 0.000000 -1.000000
vn 0.000000 0.000000 1.000000
vn 0.000000 0.000000 1.000000
vn 0.000000 0.000000 1.000000
vn 0.000000 0.000000 1.000000
vn 0.000000 0.000000 -1.000000
vn 0.000000 0.000000 -1.000000
vn 0.000000 1.000000 -0.000000
vn 0.000000 1.000000 -0.000000
vn 0.000000 1.000000 -0.000000
vn 0.000000 1.000000 -0.000000
vn 0.000000 0.000000 1.000000
vn 0.000000 0.000000 1.000000
vn 0.000000 -1.000000 0.000000
vn 0.000000 -1.000000 0.000000
vn 0.000000 -1.000000 0.000000
vn 0.000000 -1.000000 0.000000
vn 0.000000 0.000000 1.000000
vn 0.000000 0.000000 1.000000
vn 0.000000 1.000000 -0.000000
vn 0.000000 1.000000 -0.000000
vn 0.000000 1.000000 -0.000000
vn 0.000000 1.000000 -0.000000
vn 0.000000 0.000000 -1.000000
vn 0.000000 0.000000 -1.000000
vn 0.000000 0.000000 -1.000000
vn 0.000000 0.000000 -1.000000
vn 0.000000 1.000000 0.000000
vn 0.000000 1.000000 0.000000
vn 0.000000 1.000000 0.000000
vn 0.000000 1.000000 0.000000
vn 1.000000 0.000000 0.000000
vn 1.000000 0.000000 0.000000
vn 0.000000 -1.000000 0.000000
vn 0.000000 -1.000000 0.000000
vn 0.000000 -1.000000 0.000000
vn 0.000000 -1.000000 0.000000
vn -1.000000 0.000000 0.000000
vn -1.000000 0.000000 0.000000
vn 0.000000 -1.000000 0.000000
vn 0.000000 -1.000000 0.000000
vn 1.000000 0.000000 0.000000
vn 1.000000 0.000000 0.000000
vn 0.000000 1.000000 0.000000
vn 0.000000 1.000000 0.000000
vn 0.000000 1.000000 0.000000
vn 0.000000 1.000000 0.000000
vn -1.000000 0.000000 0.000000
vn -1.000000 0.000000 0.000000
s 1
g pCube1
usemtl initialShadingGroup
f 25/129/1 26/149/2 27/150/3 28/151/4
s off
f 45/64/5 46/61/6 47/60/7 48/65/8
s 2
f 29/153/9 30/154/10 31/131/11 32/155/12
s 3
f 7/102/13 8/103/14 2/104/15 1/105/16
s 4
f 26/1/17 31/2/18 30/3/19 27/4/20
s 5
f 32/7/21 25/8/22 28/9/23 29/10/24
s off
f 21/125/25 22/157/26 14/158/27 13/128/28
f 22/13/29 23/14/30 19/15/31 14/16/32
f 20/159/33 19/130/34 23/127/35 24/160/36
f 24/17/37 21/18/38 13/19/39 20/20/40
s 6
f 49/161/41 50/162/42 10/124/43 9/163/44
s 7
f 50/21/45 51/197/46 11/23/47 10/24/48
s off
f 12/164/49 11/126/50 51/137/51 52/136/52
f 52/46/53 49/47/54 9/48/55 12/49/56
s 8
f 4/116/57 3/117/58 16/54/59 15/51/60
f 5/120/61 6/121/62 18/50/63 17/55/64
f 6/121/62 4/116/57 15/51/60 18/50/63
f 3/117/58 5/120/61 17/55/64 16/54/59
s 10
f 9/163/65 10/124/66 22/157/67 21/125/68
f 10/24/66 11/23/69 23/14/70 22/13/67
f 11/126/69 12/164/71 24/160/72 23/127/70
f 12/49/71 9/48/65 21/18/68 24/17/72
s 11
f 13/128/73 14/158/74 26/149/75 25/129/76
s 12
f 34/165/77 33/132/78 35/152/79 36/133/80
f 37/166/81 38/135/82 39/156/83 40/134/84
s 11
f 19/130/85 20/159/86 32/155/87 31/131/88
f 14/16/74 19/15/85 31/2/88 26/1/75
s 12
f 38/53/82 34/52/77 36/6/80 39/5/83
s 11
f 20/20/86 13/19/73 25/8/76 32/7/87
s 12
f 33/57/78 37/56/81 40/12/84 35/11/79
s off
f 15/51/89 16/54/90 33/132/91 34/165/92
s 1
f 28/151/4 27/150/3 36/133/93 35/152/94
s off
f 17/55/95 18/50/96 38/135/97 37/166/98
s 2
f 30/154/10 29/153/9 40/134/99 39/156/100
s off
f 18/50/101 15/51/102 34/52/103 38/53/104
s 4
f 27/4/20 30/3/19 39/5/105 36/6/106
s off
f 16/54/107 17/55/108 37/56/109 33/57/110
s 5
f 29/10/24 28/9/23 35/11/111 40/12/112
s 8
f 3/117/58 4/116/57 42/118/113 41/119/114
f 4/116/57 6/121/62 43/122/115 42/118/113
f 6/121/62 5/120/61 44/123/116 43/122/115
f 5/120/61 3/117/58 41/119/114 44/123/116
s off
f 41/167/117 42/168/118 46/61/119 45/64/120
f 42/58/121 43/59/122 47/60/123 46/61/124
f 43/169/125 44/170/126 48/65/127 47/60/128
f 44/62/129 41/63/130 45/64/131 48/65/132
s 13
f 79/171/133 80/172/134 81/32/135 82/73/136
s 7
f 62/141/137 63/28/138 57/201/139 58/25/140
s off
f 97/80/141 98/37/142 99/36/143 100/81/144
s 15
f 64/190/145 61/187/146 59/142/147 60/69/148
s off
f 101/173/149 102/174/150 103/148/151 104/147/152
s 16
f 88/88/153 87/89/154 89/90/155 90/91/156
s 17
f 70/77/157 69/35/158 71/41/159 72/85/160
s off
f 75/94/161 76/95/162 77/96/163 78/97/164
s 7
f 58/25/140 57/201/139 51/197/46 50/21/45
s 6
f 59/188/165 58/140/166 50/162/42 49/161/41
s off
f 94/98/167 93/99/168 95/100/169 96/101/170
f 74/79/171 73/30/172 66/143/173 65/74/174
s 13
f 86/146/175 85/145/176 80/172/134 79/171/133
s 16
f 90/91/156 89/90/155 91/92/177 92/93/178
s 17
f 68/144/179 67/31/180 69/35/158 70/77/157
s 15
f 56/139/181 53/138/182 61/187/146 64/190/145
s 7
f 57/26/139 63/199/138 67/196/183 66/29/184
s 15
f 64/66/145 60/191/148 65/192/185 68/75/186
s 7
f 55/198/187 8/40/188 71/41/189 69/35/190
s 3
f 8/103/14 7/102/13 72/106/191 71/107/192
s 15
f 7/84/193 56/70/181 70/77/194 72/85/195
s off
f 52/136/196 51/137/197 73/30/198 74/79/199
s 7
f 51/22/46 57/202/139 66/143/184 73/30/200
s 15
f 60/195/148 52/78/201 74/79/202 65/74/185
s 7
f 63/200/138 55/34/187 69/35/190 67/31/183
s 15
f 56/193/181 64/194/145 68/144/186 70/77/194
s 3
f 7/102/13 1/105/16 76/112/203 75/113/204
s off
f 1/175/205 53/138/206 77/96/207 76/176/208
f 53/138/209 56/139/210 78/97/211 77/96/212
f 56/139/213 7/177/214 75/178/215 78/97/216
s 7
f 62/27/137 58/140/140 81/32/217 80/33/218
s off
f 58/140/219 59/188/220 82/73/221 81/32/222
s 15
f 59/188/147 61/67/146 79/72/223 82/73/224
s 3
f 1/105/16 2/104/15 84/110/225 83/111/226
s 7
f 2/42/227 54/38/228 85/39/229 84/43/230
s 15
f 53/71/182 1/82/231 83/83/232 86/76/233
s 7
f 54/38/228 62/27/137 80/33/218 85/39/229
s 15
f 61/67/146 53/71/182 86/76/233 79/72/223
s 3
f 2/104/15 8/103/14 87/108/234 88/109/235
s 19
f 8/179/236 55/180/237 89/90/238 87/89/239
s 20
f 54/182/240 2/183/241 88/88/242 90/91/243
s 19
f 55/180/237 63/181/244 91/92/245 89/90/238
s off
f 63/28/246 62/141/247 92/93/248 91/92/249
s 20
f 62/184/250 54/182/240 90/91/243 92/93/251
s off
f 60/69/252 59/142/253 93/99/254 94/98/255
s 6
f 59/68/165 49/189/41 95/100/256 93/99/257
s off
f 49/47/258 52/46/259 96/101/260 95/100/261
f 52/185/262 60/186/263 94/98/264 96/101/265
f 65/74/266 66/143/267 98/37/268 97/80/269
s 7
f 66/29/184 67/196/183 99/36/270 98/37/271
s off
f 67/31/272 68/144/273 100/81/274 99/36/275
s 15
f 68/75/186 65/192/185 97/80/276 100/81/277
s 3
f 83/111/226 84/110/225 102/114/278 101/115/279
s 7
f 84/43/230 85/39/229 103/44/280 102/45/281
s off
f 85/145/282 86/146/283 104/147/284 103/148/285
s 15
f 86/76/233 83/83/232 101/86/286 104/87/287
